<?xml version="1.0" standalone="no"?>
<!DOCTYPE svg PUBLIC "-//W3C//DTD SVG 20010904//EN"
 "http://www.w3.org/TR/2001/REC-SVG-20010904/DTD/svg10.dtd">
<svg version="1.0" xmlns="http://www.w3.org/2000/svg"
 width="2357.000000pt" height="2357.000000pt" viewBox="0 0 2357.000000 2357.000000"
 preserveAspectRatio="xMidYMid meet">
<metadata>
Created by potrace 1.11, written by Peter Selinger 2001-2013
</metadata>
<g transform="translate(0.000000,2357.000000) scale(0.100000,-0.100000)"
fill="#000000" stroke="none">
<path d="M2 14148 l3 -9423 9412 0 c5177 0 9413 3 9413 8 0 4 -1060 1067
-2355 2362 l-2355 2355 -4698 0 -4697 0 1 4692 c1 2581 2 4694 3 4696 0 1
1062 -1059 2358 -2355 l2358 -2358 4700 -5 4700 -5 0 -4695 0 -4695 2358
-2358 c1296 -1296 2359 -2357 2362 -2357 3 0 4 4238 3 9417 l-3 9417 -9420 1
-9420 0 -2363 2363 -2362 2362 2 -9422z"/>
</g>
</svg>
